<svg width="24" height="24" viewBox="0 0 24 24" fill="none" xmlns="http://www.w3.org/2000/svg">
<path fill-rule="evenodd" clip-rule="evenodd" d="M22.7071 1.29289C23.0976 1.68342 23.0976 2.31658 22.7071 2.70711L17.9142 7.5H21C21.5523 7.5 22 7.94772 22 8.5C22 9.05229 21.5523 9.5 21 9.5H15.5C14.9477 9.5 14.5 9.05229 14.5 8.5V2.5C14.5 1.94772 14.9477 1.5 15.5 1.5C16.0523 1.5 16.5 1.94772 16.5 2.5V6.08579L21.2929 1.29289C21.6834 0.902369 22.3166 0.902369 22.7071 1.29289ZM6.08578 16.5L3 16.5C2.44771 16.5 2 16.0523 2 15.5C2 14.9477 2.44771 14.5 3 14.5L8.5 14.5C8.76522 14.5 9.01957 14.6054 9.20711 14.7929C9.39464 14.9804 9.5 15.2348 9.5 15.5L9.5 21.5C9.5 22.0523 9.05229 22.5 8.5 22.5C7.94772 22.5 7.5 22.0523 7.5 21.5L7.5 17.9142L2.70711 22.7071C2.31658 23.0976 1.68342 23.0976 1.29289 22.7071C0.902369 22.3166 0.902369 21.6834 1.29289 21.2929L6.08578 16.5Z" fill="white"/>
</svg>
