<svg width="24" height="24" viewBox="0 0 24 24" fill="none" xmlns="http://www.w3.org/2000/svg">
<path fill-rule="evenodd" clip-rule="evenodd" d="M16 3C15.4477 3 15 2.55228 15 2C15 1.44772 15.4477 1 16 1H22C22.5523 1 23 1.44772 23 2V7.5C23 8.05229 22.5523 8.5 22 8.5C21.4477 8.5 21 8.05229 21 7.5V4.41421L16.2071 9.20711C15.8166 9.59763 15.1834 9.59763 14.7929 9.20711C14.4024 8.81658 14.4024 8.18342 14.7929 7.79289L19.5858 3H16ZM7.79289 14.7929C8.18342 14.4024 8.81658 14.4024 9.20711 14.7929C9.59763 15.1834 9.59763 15.8166 9.20711 16.2071L4.41421 21H8C8.55228 21 9 21.4477 9 22C9 22.5523 8.55228 23 8 23H2C1.44772 23 1 22.5523 1 22V16.5C1 15.9477 1.44772 15.5 2 15.5C2.55228 15.5 3 15.9477 3 16.5V19.5858L7.79289 14.7929Z" fill="white"/>
</svg>
