<svg width="24" height="24" viewBox="0 0 24 24" fill="none" xmlns="http://www.w3.org/2000/svg">
<path d="M3 3C1.89543 3 1 3.89543 1 5V8C1 8.55228 1.44772 9 2 9C2.55228 9 3 8.55228 3 8V5H21V19H14C13.4477 19 13 19.4477 13 20C13 20.5523 13.4477 21 14 21H21C22.1046 21 23 20.1046 23 19V5C23 3.89543 22.1046 3 21 3H3Z" fill="white"/>
<path d="M2 11C1.44772 11 1 11.4477 1 12C1 12.5523 1.44772 13 2 13C5.86599 13 9 16.134 9 20C9 20.5523 9.44772 21 10 21C10.5523 21 11 20.5523 11 20C11 15.0294 6.97056 11 2 11Z" fill="white"/>
<path d="M2 15C1.44772 15 1 15.4477 1 16C1 16.5523 1.44772 17 2 17C3.65685 17 5 18.3431 5 20C5 20.5523 5.44772 21 6 21C6.55228 21 7 20.5523 7 20C7 17.2386 4.76142 15 2 15Z" fill="white"/>
<path d="M2 19C1.44772 19 1 19.4477 1 20C1 20.5523 1.44772 21 2 21H2.01C2.56228 21 3.01 20.5523 3.01 20C3.01 19.4477 2.56228 19 2.01 19H2Z" fill="white"/>
</svg>
