<svg width="24" height="24" viewBox="0 0 24 24" fill="none" xmlns="http://www.w3.org/2000/svg">
<path d="M6.48872 3.47181C5.87628 3.83075 5.5 4.48743 5.5 5.1973V6.84605C5.5 7.03252 5.46523 7.21735 5.39748 7.39107L5.16835 7.97858C5.05867 8.25981 4.8667 8.5014 4.61752 8.67178L2.65335 10.0148C2.2445 10.2944 2 10.7577 2 11.253V12.747C2 13.2423 2.2445 13.7056 2.65335 13.9852L4.61752 15.3282C4.8667 15.4986 5.05867 15.7402 5.16835 16.0214L5.39748 16.6089C5.46523 16.7827 5.5 16.9675 5.5 17.1539V18.8027C5.5 19.5126 5.87628 20.1693 6.48872 20.5282L7.90631 21.359C8.57402 21.7503 9.40758 21.7213 10.0464 21.2845L10.8711 20.7206C11.5518 20.2552 12.4482 20.2552 13.1289 20.7206L13.9536 21.2845C14.5924 21.7213 15.426 21.7503 16.0937 21.359L17.5113 20.5282C18.1237 20.1693 18.5 19.5126 18.5 18.8027V17.1539C18.5 16.9675 18.5348 16.7827 18.6025 16.6089L18.8316 16.0214C18.9413 15.7402 19.1333 15.4986 19.3825 15.3282L21.3466 13.9852C21.7555 13.7056 22 13.2423 22 12.747V11.253C22 10.7577 21.7555 10.2944 21.3466 10.0148L19.3825 8.67178C19.1333 8.5014 18.9413 8.25981 18.8316 7.97858L18.6025 7.39107C18.5348 7.21735 18.5 7.03252 18.5 6.84605V5.1973C18.5 4.48743 18.1237 3.83075 17.5113 3.47181L16.0937 2.64099C15.426 2.24966 14.5924 2.27869 13.9536 2.71552L13.1289 3.27941C12.4482 3.7448 11.5518 3.7448 10.8711 3.27941L10.0464 2.71552C9.40758 2.27869 8.57402 2.24966 7.90631 2.64099L6.48872 3.47181Z" stroke="white" stroke-width="2" stroke-linejoin="round"/>
<circle cx="12" cy="12" r="3" stroke="white" stroke-width="2"/>
</svg>
