<svg width="24" height="24" viewBox="0 0 24 24" fill="none" xmlns="http://www.w3.org/2000/svg">
<path fill-rule="evenodd" clip-rule="evenodd" d="M10.5 7C14.1664 7 16.5568 8.9924 17.9875 10.9C18.5427 11.6402 18.9619 12.377 19.2671 13H22C22.4045 13 22.7691 13.2436 22.9239 13.6173C23.0787 13.991 22.9931 14.4211 22.7071 14.7071L19.7071 17.7071C19.3166 18.0976 18.6834 18.0976 18.2929 17.7071L15.2929 14.7071C15.0069 14.4211 14.9214 13.991 15.0761 13.6173C15.2309 13.2436 15.5956 13 16 13H16.9923C16.8157 12.7066 16.6147 12.4029 16.3875 12.1C15.1932 10.5076 13.3337 9 10.5 9C7.66637 9 5.80682 10.5076 4.61252 12.1C4.01365 12.8985 3.59648 13.7026 3.32924 14.3094C3.19621 14.6114 3.10192 14.8608 3.04191 15.0313C3.01195 15.1164 2.99064 15.1815 2.97741 15.2233C2.9708 15.2441 2.96623 15.2592 2.9636 15.2679L2.96155 15.2747L2.96109 15.2763C2.80872 15.8064 2.25581 16.1131 1.7253 15.9615C1.19427 15.8098 0.887028 15.2554 1.03875 14.7244L1.0398 14.7208L1.04187 14.7137L1.04832 14.692C1.05366 14.6742 1.0611 14.6499 1.07073 14.6195C1.08998 14.5587 1.11798 14.4734 1.1554 14.3672C1.23016 14.1548 1.3429 13.8574 1.49893 13.5031C1.80982 12.7974 2.2989 11.8515 3.01252 10.9C4.44323 8.9924 6.83367 7 10.5 7ZM2.00002 15L1.03875 14.7244C1.03875 14.7244 1.0385 14.7253 2.00002 15Z" fill="white"/>
</svg>
