<svg width="24" height="24" viewBox="0 0 24 24" fill="none" xmlns="http://www.w3.org/2000/svg">
<path fill-rule="evenodd" clip-rule="evenodd" d="M10.5 7C14.1664 7 16.5568 8.9924 17.9875 10.9C18.5427 11.6402 18.9619 12.377 19.2671 13H22C22.4045 13 22.7691 13.2436 22.9239 13.6173C23.0787 13.991 22.9931 14.4211 22.7071 14.7071L19.7071 17.7071C19.3166 18.0976 18.6834 18.0976 18.2929 17.7071L15.2929 14.7071C15.0069 14.4211 14.9213 13.991 15.0761 13.6173C15.2309 13.2436 15.5955 13 16 13H16.9923C16.8157 12.7066 16.6147 12.4029 16.3875 12.1C15.1932 10.5076 13.3336 9 10.5 9C7.66635 9 5.8068 10.5076 4.6125 12.1C4.01363 12.8985 3.59646 13.7026 3.32922 14.3094C3.19619 14.6114 3.10189 14.8608 3.04189 15.0313C3.01192 15.1164 2.99061 15.1815 2.97739 15.2233C2.97078 15.2441 2.9662 15.2592 2.96358 15.2679L2.96152 15.2747L2.96107 15.2763C2.8087 15.8064 2.25579 16.1131 1.72528 15.9615C1.19425 15.8098 0.887006 15.2554 1.03873 14.7244L1.03978 14.7208L1.04184 14.7137L1.04829 14.692C1.05364 14.6742 1.06108 14.6499 1.07071 14.6195C1.08995 14.5587 1.11796 14.4734 1.15538 14.3672C1.23014 14.1548 1.34288 13.8574 1.49891 13.5031C1.80979 12.7974 2.29887 11.8515 3.0125 10.9C4.4432 8.9924 6.83365 7 10.5 7ZM2 15L1.03873 14.7244C1.03873 14.7244 1.03848 14.7253 2 15Z" fill="white"/>
</svg>
