<svg width="24" height="24" viewBox="0 0 24 24" fill="none" xmlns="http://www.w3.org/2000/svg">
<path fill-rule="evenodd" clip-rule="evenodd" d="M1 5C1 4.44772 1.44772 4 2 4H22C22.5523 4 23 4.44772 23 5C23 5.55228 22.5523 6 22 6H2C1.44772 6 1 5.55228 1 5ZM1 12C1 11.4477 1.44772 11 2 11H10C10.5523 11 11 11.4477 11 12C11 12.5523 10.5523 13 10 13H2C1.44772 13 1 12.5523 1 12ZM1 19C1 18.4477 1.44772 18 2 18H10C10.5523 18 11 18.4477 11 19C11 19.5523 10.5523 20 10 20H2C1.44772 20 1 19.5523 1 19Z" fill="white"/>
<path fill-rule="evenodd" clip-rule="evenodd" d="M14 11.9603V19.0397C14 19.7527 14.7505 20.2163 15.3883 19.8975L22.4697 16.3578C23.1768 16.0044 23.1768 14.9956 22.4697 14.6422L15.3883 11.1025C14.7505 10.7837 14 11.2473 14 11.9603Z" fill="white"/>
</svg>
