<svg width="24" height="24" viewBox="0 0 24 24" fill="none" xmlns="http://www.w3.org/2000/svg">
<path fill-rule="evenodd" clip-rule="evenodd" d="M13.5 7C9.83365 7 7.4432 8.9924 6.0125 10.9C5.45734 11.6402 5.03808 12.377 4.73289 13H2C1.59554 13 1.2309 13.2436 1.07612 13.6173C0.921338 13.991 1.00689 14.4211 1.29289 14.7071L4.29289 17.7071C4.68342 18.0976 5.31658 18.0976 5.70711 17.7071L8.70711 14.7071C8.9931 14.4211 9.07866 13.991 8.92388 13.6173C8.7691 13.2436 8.40446 13 8 13H7.00771C7.18432 12.7066 7.38534 12.4029 7.6125 12.1C8.8068 10.5076 10.6663 9 13.5 9C16.3336 9 18.1932 10.5076 19.3875 12.1C19.9864 12.8985 20.4035 13.7026 20.6708 14.3094C20.8038 14.6114 20.8981 14.8608 20.9581 15.0313C20.9881 15.1164 21.0094 15.1815 21.0226 15.2233C21.0292 15.2441 21.0338 15.2592 21.0364 15.2679L21.0385 15.2747L21.0389 15.2763C21.1913 15.8064 21.7442 16.1131 22.2747 15.9615C22.8058 15.8098 23.113 15.2554 22.9613 14.7244L22.9602 14.7208L22.9582 14.7137L22.9517 14.692C22.9464 14.6742 22.9389 14.6499 22.9293 14.6195C22.91 14.5587 22.882 14.4734 22.8446 14.3672C22.7699 14.1548 22.6571 13.8574 22.5011 13.5031C22.1902 12.7974 21.7011 11.8515 20.9875 10.9C19.5568 8.9924 17.1663 7 13.5 7ZM22 15L22.9613 14.7244C22.9613 14.7244 22.9615 14.7253 22 15Z" fill="white"/>
</svg>
