<svg width="24" height="24" viewBox="0 0 24 24" fill="none" xmlns="http://www.w3.org/2000/svg">
<path fill-rule="evenodd" clip-rule="evenodd" d="M16.7723 15.4024C17.9372 13.9918 18.642 12.1853 18.642 10.2141C18.642 5.64559 14.8843 2 10.321 2C5.75771 2 2 5.64559 2 10.2141C2 14.7827 5.75771 18.4283 10.321 18.4283C12.1934 18.4283 13.9274 17.8157 15.3212 16.7802L19.2969 20.7111C19.6896 21.0994 20.3228 21.0958 20.7111 20.7031C21.0994 20.3104 21.0958 19.6772 20.7031 19.2889L16.7723 15.4024ZM13.8831 15.3483C12.8688 16.0297 11.6423 16.4283 10.321 16.4283C6.83 16.4283 4 13.6461 4 10.2141C4 6.78216 6.83 4 10.321 4C13.812 4 16.642 6.78216 16.642 10.2141C16.642 11.6341 16.1575 12.9429 15.3422 13.9894C15.244 14.1154 15.141 14.2377 15.0334 14.3558C14.9164 14.4844 14.7941 14.6082 14.6667 14.7268C14.423 14.9536 14.1611 15.1616 13.8831 15.3483Z" fill="white"/>
</svg>
