<svg width="24" height="24" viewBox="0 0 24 24" fill="none" xmlns="http://www.w3.org/2000/svg">
<path fill-rule="evenodd" clip-rule="evenodd" d="M21.625 3.125C22.6605 3.125 23.5 3.96447 23.5 5V19C23.5 20.0355 22.6605 20.875 21.625 20.875H2.375C1.33947 20.875 0.5 20.0355 0.5 19V5C0.5 3.96447 1.33947 3.125 2.375 3.125H21.625ZM5 13.5C4.44772 13.5 4 13.9477 4 14.5C4 15.0523 4.44772 15.5 5 15.5H12C12.5523 15.5 13 15.0523 13 14.5C13 13.9477 12.5523 13.5 12 13.5H5ZM15 13.5C14.4477 13.5 14 13.9477 14 14.5C14 15.0523 14.4477 15.5 15 15.5H18C18.5523 15.5 19 15.0523 19 14.5C19 13.9477 18.5523 13.5 18 13.5H15ZM4 17C3.44772 17 3 17.4477 3 18C3 18.5523 3.44772 19 4 19H9C9.55228 19 10 18.5523 10 18C10 17.4477 9.55228 17 9 17H4ZM12 17C11.4477 17 11 17.4477 11 18C11 18.5523 11.4477 19 12 19H14C14.5523 19 15 18.5523 15 18C15 17.4477 14.5523 17 14 17H12ZM17 17C16.4477 17 16 17.4477 16 18C16 18.5523 16.4477 19 17 19H20C20.5523 19 21 18.5523 21 18C21 17.4477 20.5523 17 20 17H17Z" fill="white"/>
</svg>
