<svg width="24" height="24" viewBox="0 0 24 24" fill="none" xmlns="http://www.w3.org/2000/svg">
<path fill-rule="evenodd" clip-rule="evenodd" d="M10.7081 3.37934C12.008 2.27948 14 3.20339 14 4.90611V19.0939C14 20.7966 12.0079 21.7205 10.7081 20.6207L6.13369 16.75H3C1.89543 16.75 1 15.8546 1 14.75V9.25001C1 8.14544 1.89543 7.25001 3 7.25001L6.13369 7.25001L10.7081 3.37934ZM12 4.90611L7.42558 8.77678C7.06447 9.08233 6.60673 9.25001 6.13369 9.25001H3V14.75H6.13369C6.60673 14.75 7.06446 14.9177 7.42558 15.2232L12 19.0939V4.90611ZM18.2379 5.37162C18.5954 4.95071 19.2265 4.89935 19.6474 5.25691C21.6969 6.99793 23 9.5973 23 12.5C23 15.4027 21.6969 18.0021 19.6474 19.7431C19.2265 20.1007 18.5954 20.0493 18.2379 19.6284C17.8803 19.2075 17.9317 18.5764 18.3526 18.2188C19.9739 16.8416 21 14.7911 21 12.5C21 10.2089 19.9739 8.15843 18.3526 6.78118C17.9317 6.42362 17.8803 5.79254 18.2379 5.37162ZM15.5513 8.37096C15.8987 7.94163 16.5284 7.87523 16.9577 8.22264C18.2018 9.22932 19 10.7718 19 12.5C19 14.2282 18.2018 15.7707 16.9577 16.7774C16.5284 17.1248 15.8987 17.0584 15.5513 16.6291C15.2039 16.1997 15.2703 15.57 15.6996 15.2226C16.4946 14.5794 17 13.5991 17 12.5C17 11.4009 16.4946 10.4206 15.6996 9.77737C15.2703 9.42996 15.2039 8.80029 15.5513 8.37096Z" fill="white"/>
</svg>
