<svg width="24" height="24" viewBox="0 0 24 24" fill="none" xmlns="http://www.w3.org/2000/svg">
<path fill-rule="evenodd" clip-rule="evenodd" d="M10.7081 3.37933C12.008 2.27947 14 3.20338 14 4.90611V19.0939C14 20.7966 12.0079 21.7205 10.7081 20.6207L6.13369 16.75H3C1.89543 16.75 1 15.8546 1 14.75V9.25C1 8.14543 1.89543 7.25 3 7.25L6.13369 7.25L10.7081 3.37933ZM12 4.90611L7.42558 8.77677C7.06447 9.08233 6.60673 9.25 6.13369 9.25H3V14.75H6.13369C6.60673 14.75 7.06446 14.9177 7.42558 15.2232L12 19.0939V4.90611ZM15.5513 8.37095C15.8987 7.94162 16.5284 7.87522 16.9577 8.22263C18.2018 9.22931 19 10.7718 19 12.5C19 14.2282 18.2018 15.7707 16.9577 16.7774C16.5284 17.1248 15.8987 17.0584 15.5513 16.629C15.2039 16.1997 15.2703 15.57 15.6996 15.2226C16.4946 14.5794 17 13.5991 17 12.5C17 11.4009 16.4946 10.4206 15.6996 9.77737C15.2703 9.42995 15.2039 8.80028 15.5513 8.37095Z" fill="white"/>
</svg>
