<svg width="24" height="24" viewBox="0 0 24 24" fill="none" xmlns="http://www.w3.org/2000/svg">
<path fill-rule="evenodd" clip-rule="evenodd" d="M10.7081 3.37934C12.008 2.27948 14 3.20339 14 4.90611V10.5C14 11.0523 13.5523 11.5 13 11.5C12.4477 11.5 12 11.0523 12 10.5L12 4.90611L9.64594 6.89801C9.22434 7.25475 8.59336 7.20217 8.23661 6.78056C7.87987 6.35896 7.93245 5.72798 8.35406 5.37124L10.7081 3.37934ZM1.29289 3.7929C1.68342 3.40238 2.31658 3.40238 2.70711 3.7929L17.2071 18.2929C17.5976 18.6834 17.5976 19.3166 17.2071 19.7071C16.8166 20.0976 16.1834 20.0976 15.7929 19.7071L14 17.9142V19.0939C14 20.7966 12.0079 21.7205 10.7081 20.6207L6.13369 16.75H3C1.89543 16.75 1 15.8546 1 14.75V9.25001C1 8.14544 1.89543 7.25001 3 7.25001H3.33579L1.29289 5.20711C0.902369 4.81659 0.902369 4.18342 1.29289 3.7929ZM5.33579 9.25001H3V14.75H6.13369C6.60673 14.75 7.06446 14.9177 7.42558 15.2232L12 19.0939V15.9142L5.33579 9.25001Z" fill="white"/>
</svg>
